<svg xmlns="http://www.w3.org/2000/svg" xmlns:xlink="http://www.w3.org/1999/xlink" width="500" zoomAndPan="magnify" viewBox="0 0 375 374.999991" height="500" preserveAspectRatio="xMidYMid meet" version="1.0"><defs><clipPath id="ac72a3df06"><path d="M 64 37.5 L 342 37.5 L 342 315 L 64 315 Z M 64 37.5 " clip-rule="nonzero"/></clipPath></defs><g clip-path="url(#ac72a3df06)"><path fill="#7b10f4" d="M 341.980469 37.546875 L 83.179688 311.683594 C 83.179688 311.683594 74.355469 317.890625 67.617188 310.644531 C 60.875 303.382812 66.066406 296.132812 66.066406 296.132812 L 341.980469 37.546875 L 341.980469 37.542969 Z M 341.980469 37.546875 " fill-opacity="1" fill-rule="nonzero"/></g><path fill="#7b10f4" d="M 260.035156 63.457031 L 62.945312 275.925781 C 62.945312 275.925781 54.136719 282.148438 47.398438 274.886719 C 40.644531 267.636719 45.835938 260.378906 45.835938 260.378906 Z M 260.035156 63.457031 " fill-opacity="1" fill-rule="nonzero"/><path fill="#7b10f4" d="M 317.605469 118.90625 L 120.515625 331.378906 C 120.515625 331.378906 111.695312 337.597656 104.957031 330.335938 C 98.214844 323.085938 103.40625 315.828125 103.40625 315.828125 L 317.605469 118.90625 L 317.601562 118.90625 Z M 317.605469 118.90625 " fill-opacity="1" fill-rule="nonzero"/><path fill="#7b10f4" d="M 190.761719 85.738281 L 53.070312 234.179688 C 53.070312 234.179688 46.910156 238.53125 42.203125 233.457031 C 37.484375 228.394531 41.117188 223.324219 41.117188 223.324219 L 190.761719 85.738281 L 190.761719 85.742188 Z M 190.761719 85.738281 " fill-opacity="1" fill-rule="nonzero"/><path fill="#7b10f4" d="M 298.636719 183.160156 L 160.949219 331.597656 C 160.949219 331.597656 154.785156 335.949219 150.070312 330.878906 C 145.363281 325.804688 148.992188 320.742188 148.992188 320.742188 Z M 298.636719 183.160156 " fill-opacity="1" fill-rule="nonzero"/><path fill="#7b10f4" d="M 120 117.867188 L 57.597656 185.347656 C 57.597656 185.347656 54.546875 187.382812 52.21875 185.015625 C 49.890625 182.640625 51.675781 180.261719 51.675781 180.261719 Z M 120 117.867188 " fill-opacity="1" fill-rule="nonzero"/><path fill="#7b10f4" d="M 264.183594 251.566406 L 201.78125 319.054688 C 201.78125 319.054688 198.730469 321.085938 196.402344 318.710938 C 194.070312 316.332031 195.855469 313.957031 195.855469 313.957031 Z M 264.183594 251.566406 " fill-opacity="1" fill-rule="nonzero"/></svg>